<svg width="15" height="14" viewBox="0 0 15 14" fill="none" xmlns="http://www.w3.org/2000/svg">
<path d="M10.0079 5.596C10.0079 4.63467 9.66719 3.81333 8.98586 3.132C8.30453 2.45067 7.47853 2.10533 6.50786 2.096C5.53719 2.08667 4.71119 2.432 4.02986 3.132C3.34853 3.832 3.00786 4.65333 3.00786 5.596C3.00786 6.53867 3.34853 7.36467 4.02986 8.074C4.71119 8.78333 5.53719 9.124 6.50786 9.096C7.47853 9.068 8.30453 8.72733 8.98586 8.074C9.66719 7.42067 10.0079 6.59467 10.0079 5.596ZM14.0119 12.106C14.0119 12.3767 13.9092 12.61 13.7039 12.806C13.4985 13.002 13.2605 13.1 12.9899 13.1C12.7192 13.1 12.4905 13.002 12.3039 12.806L9.62986 10.132C8.69653 10.776 7.65586 11.098 6.50786 11.098C5.76119 11.098 5.04719 10.9533 4.36586 10.664C3.68453 10.3747 3.10119 9.98267 2.61586 9.488C2.13053 8.99333 1.73853 8.41 1.43986 7.738C1.14119 7.066 0.996526 6.352 1.00586 5.596C1.01519 4.84 1.15986 4.13067 1.43986 3.468C1.71986 2.80533 2.11186 2.21733 2.61586 1.704C3.11986 1.19067 3.70319 0.798666 4.36586 0.528C5.02853 0.257333 5.74253 0.112666 6.50786 0.0939994C7.27319 0.075333 7.98719 0.22 8.64986 0.528C9.31253 0.836 9.89586 1.228 10.3999 1.704C10.9039 2.18 11.2959 2.768 11.5759 3.468C11.8559 4.168 12.0005 4.87733 12.0099 5.596C12.0099 6.744 11.6879 7.78467 11.0439 8.718L13.7179 11.392C13.9139 11.588 14.0119 11.826 14.0119 12.106Z" fill="white"/>
</svg>
