<svg width="18" height="17" viewBox="0 0 18 17" fill="none" xmlns="http://www.w3.org/2000/svg">
<path d="M1.048 10.112C1.37867 9.07733 1.94933 8.15467 2.76 7.344C3.38933 6.69333 4.472 5.92 6.008 5.024C7.384 4.23467 8.33333 3.57867 8.856 3.056C9.44267 2.46933 9.83733 1.824 10.04 1.12C10.104 0.949333 10.1893 0.805333 10.296 0.688C10.4453 0.559999 10.6 0.474666 10.76 0.431999C11.1333 0.346666 11.4587 0.431999 11.736 0.688L16.728 5.68C17.0053 5.968 17.0907 6.304 16.984 6.688C16.6533 7.744 16.0773 8.66667 15.256 9.456C14.6373 10.1067 13.5547 10.88 12.008 11.776C10.632 12.5653 9.688 13.2213 9.176 13.744C8.58933 14.3093 8.18933 14.9547 7.976 15.68C7.912 15.8507 7.832 15.9947 7.736 16.112C7.58667 16.24 7.42667 16.3253 7.256 16.368C6.88267 16.4533 6.56267 16.368 6.296 16.112L1.288 11.12C1.02133 10.832 0.941333 10.496 1.048 10.112ZM2.008 10.4L3.592 11.984L7.016 15.408C7.28267 14.5653 7.73067 13.8187 8.36 13.168C8.98933 12.5173 9.672 11.9733 10.408 11.536L12.616 10.256L14.68 8.64C16.056 7.56267 16.4987 6.816 16.008 6.4L11.016 1.408C10.76 2.24 10.3173 2.98133 9.688 3.632C9.05867 4.28267 8.37067 4.82667 7.624 5.264L5.4 6.544L3.352 8.16C1.98667 9.23733 1.53867 9.984 2.008 10.4ZM6.392 13.584L6.728 13.12C6.96267 12.832 7.21333 12.5493 7.48 12.272C7.71467 12.0267 8.008 11.7653 8.36 11.488C8.47733 11.392 8.58933 11.392 8.696 11.488C8.824 11.616 8.824 11.744 8.696 11.872H8.664C8.33333 12.1387 8.056 12.3893 7.832 12.624C7.576 12.8693 7.34667 13.1253 7.144 13.392L6.824 13.84C6.80267 13.8613 6.792 13.8827 6.792 13.904C6.664 14.032 6.54133 14.032 6.424 13.904C6.33867 13.7973 6.328 13.6907 6.392 13.584ZM6.824 7.84C6.84533 7.648 6.89867 7.472 6.984 7.312C7.06933 7.12 7.17067 6.94933 7.288 6.8C7.288 6.77867 7.26133 6.75733 7.208 6.736C7.16533 6.704 7.144 6.66133 7.144 6.608C7.144 6.55467 7.16533 6.50133 7.208 6.448C7.25067 6.39467 7.29333 6.368 7.336 6.368C7.37867 6.368 7.416 6.38933 7.448 6.432C7.49067 6.47467 7.53333 6.50667 7.576 6.528C7.66133 6.44267 7.768 6.35733 7.896 6.272C8.024 6.18667 8.17333 6.12267 8.344 6.08C8.51467 6.03733 8.66933 6.032 8.808 6.064C8.94667 6.096 9.07467 6.176 9.192 6.304C9.27733 6.38933 9.32 6.48533 9.32 6.592C9.32 6.69867 9.27733 6.77867 9.192 6.832C9.13867 6.896 9.05867 6.91733 8.952 6.896C8.888 6.87467 8.792 6.85333 8.664 6.832C8.568 6.78933 8.46133 6.77333 8.344 6.784C8.22667 6.79467 8.104 6.85333 7.976 6.96C8.18933 7.17333 8.46133 7.47733 8.792 7.872C8.94133 7.78667 9.10133 7.712 9.272 7.648C9.45333 7.584 9.62933 7.54133 9.8 7.52C9.97067 7.49867 10.136 7.51467 10.296 7.568C10.456 7.62133 10.616 7.712 10.776 7.84C10.936 7.968 11.048 8.10133 11.112 8.24C11.1547 8.38933 11.1653 8.54933 11.144 8.72C11.144 8.88 11.0907 9.056 10.984 9.248C10.8987 9.45067 10.7813 9.648 10.632 9.84C10.7173 9.904 10.8027 9.97333 10.888 10.048C10.9307 10.0693 10.9573 10.1067 10.968 10.16C10.9787 10.2133 10.9627 10.2613 10.92 10.304C10.8773 10.3467 10.8293 10.3733 10.776 10.384C10.7227 10.3947 10.6747 10.3787 10.632 10.336C10.536 10.2507 10.456 10.1653 10.392 10.08C10.2 10.272 10.0133 10.4 9.832 10.464C9.66133 10.528 9.48 10.56 9.288 10.56C9.128 10.5387 8.97867 10.496 8.84 10.432C8.70133 10.368 8.59467 10.288 8.52 10.192C8.44533 10.096 8.40267 10.0053 8.392 9.92C8.38133 9.83467 8.424 9.74933 8.52 9.664C8.616 9.57867 8.68533 9.54133 8.728 9.552L8.936 9.6C9.032 9.62133 9.10133 9.664 9.144 9.728C9.18667 9.792 9.256 9.82933 9.352 9.84C9.448 9.85067 9.53867 9.85067 9.624 9.84C9.70933 9.82933 9.816 9.76533 9.944 9.648C9.72 9.424 9.42133 9.09333 9.048 8.656C8.70667 8.83733 8.36 8.93867 8.008 8.96C7.69867 8.98133 7.432 8.90133 7.208 8.72C7.05867 8.592 6.952 8.45333 6.888 8.304C6.824 8.15467 6.80267 8 6.824 7.84ZM7.496 7.664C7.48533 7.73867 7.49067 7.81333 7.512 7.888C7.53333 7.96267 7.576 8.016 7.64 8.048C7.74667 8.15467 7.864 8.20267 7.992 8.192C8.12 8.18133 8.296 8.128 8.52 8.032C8.2 7.69067 7.93867 7.41867 7.736 7.216L7.576 7.44C7.53333 7.504 7.50667 7.57867 7.496 7.664ZM9.288 5.376C9.192 5.26933 9.192 5.152 9.288 5.024C9.30933 5.00267 9.33067 4.992 9.352 4.992C9.69333 4.72533 9.976 4.47467 10.2 4.24C10.4453 3.99467 10.6747 3.73333 10.888 3.456L11.192 3.024C11.2133 2.98133 11.2347 2.96 11.256 2.96C11.384 2.832 11.5013 2.82667 11.608 2.944C11.7147 3.06133 11.7253 3.184 11.64 3.312L11.288 3.776C11.064 4.064 10.8133 4.34667 10.536 4.624C10.312 4.86933 10.024 5.12533 9.672 5.392C9.544 5.49867 9.416 5.49333 9.288 5.376ZM9.352 8.496C9.69333 8.86933 9.976 9.168 10.2 9.392C10.264 9.33867 10.3173 9.26933 10.36 9.184C10.4027 9.09867 10.4347 9.01333 10.456 8.928C10.4773 8.84267 10.4773 8.768 10.456 8.704C10.4347 8.64 10.3867 8.56533 10.312 8.48C10.2373 8.39467 10.1573 8.34667 10.072 8.336C9.98667 8.32533 9.90667 8.32 9.832 8.32C9.75733 8.32 9.672 8.34667 9.576 8.4L9.352 8.496Z" fill="#f89736"/>
</svg>
