<svg width="15" height="12" viewBox="0 0 15 12" fill="none" xmlns="http://www.w3.org/2000/svg">
<path d="M6.84 2.915C6.84 2.115 7.125 1.44 7.695 0.89C8.265 0.34 8.95 0.0599996 9.75 0.0499997C10.6 0.0499997 11.295 0.345 11.835 0.935C12.435 0.805 13.045 0.58 13.665 0.26C13.465 0.929999 13.05 1.46 12.42 1.85C12.95 1.77 13.5 1.615 14.07 1.385C13.68 1.965 13.195 2.47 12.615 2.9V3.26C12.615 4.62 12.315 5.9 11.715 7.1C11.115 8.3 10.165 9.325 8.865 10.175C7.565 11.025 6.085 11.45 4.425 11.45C2.805 11.45 1.33 11.02 0 10.16C0.2 10.18 0.44 10.19 0.72 10.19C2.05 10.19 3.235 9.785 4.275 8.975C3.625 8.965 3.06 8.765 2.58 8.375C2.1 7.985 1.77 7.51 1.59 6.95C1.72 7 1.895 7.025 2.115 7.025C2.335 7.025 2.585 6.995 2.865 6.935C2.215 6.795 1.675 6.46 1.245 5.93C0.815 5.4 0.595 4.775 0.585 4.055C0.945 4.255 1.375 4.375 1.875 4.415C1.015 3.815 0.585 3.01 0.585 2C0.585 1.52 0.715 1.045 0.975 0.574999C2.555 2.485 4.545 3.48 6.945 3.56C6.875 3.34 6.84 3.125 6.84 2.915Z" fill="#F89736"/>
</svg>
