<svg width="47" height="36" viewBox="0 0 47 36" fill="none" xmlns="http://www.w3.org/2000/svg">
<path d="M21 25.04C21 25.8667 20.76 26.56 20.28 27.12C19.8 27.68 19.24 27.9733 18.6 28H9.12C8.45333 28 7.88 27.7067 7.4 27.12C6.92 26.5333 6.68 25.84 6.68 25.04C6.70667 24.24 6.77333 23.4933 6.88 22.8C6.98667 22.1067 7.17333 21.44 7.44 20.8C7.70667 20.16 8.08 19.6533 8.56 19.28C9.04 18.9067 9.64 18.72 10.36 18.72C11.32 19.68 12.48 20.16 13.84 20.16C15.2 20.16 16.3733 19.68 17.36 18.72C18.0533 18.72 18.6533 18.9067 19.16 19.28C19.6667 19.6533 20.04 20.16 20.28 20.8C20.52 21.44 20.7067 22.1067 20.84 22.8C20.9733 23.4933 21.0267 24.24 21 25.04ZM18.16 15.16C18.16 16.3333 17.7333 17.3333 16.88 18.16C16.0267 18.9867 15.0133 19.4133 13.84 19.44C12.6667 19.4667 11.6667 19.04 10.84 18.16C10.0133 17.28 9.58667 16.28 9.56 15.16C9.53333 14.04 9.96 13.0267 10.84 12.12C11.72 11.2133 12.72 10.7867 13.84 10.84C14.96 10.8933 15.9733 11.32 16.88 12.12C17.7867 12.92 18.2133 13.9333 18.16 15.16ZM41 24.44V25.84C41 26.0533 40.9333 26.2267 40.8 26.36C40.6667 26.4933 40.4933 26.56 40.28 26.56H24.56C24.3733 26.56 24.2133 26.4933 24.08 26.36C23.9467 26.2267 23.8667 26.0533 23.84 25.84V24.44C23.84 24.2267 23.92 24.0533 24.08 23.92C24.24 23.7867 24.4 23.72 24.56 23.72H40.28C40.4933 23.72 40.6667 23.7867 40.8 23.92C40.9333 24.0533 41 24.2267 41 24.44ZM32.44 18.72V20.16C32.44 20.3467 32.3733 20.5067 32.24 20.64C32.1067 20.7733 31.9333 20.84 31.72 20.84H24.56C24.3733 20.84 24.2133 20.7733 24.08 20.64C23.9467 20.5067 23.8667 20.3467 23.84 20.16V18.72C23.84 18.5067 23.92 18.3333 24.08 18.2C24.24 18.0667 24.4 18 24.56 18H31.72C31.9333 18 32.1067 18.0667 32.24 18.2C32.3733 18.3333 32.44 18.5067 32.44 18.72ZM41 18.72V20.16C41 20.3467 40.9333 20.5067 40.8 20.64C40.6667 20.7733 40.4933 20.84 40.28 20.84H36C35.7867 20.84 35.6133 20.7733 35.48 20.64C35.3467 20.5067 35.28 20.3467 35.28 20.16V18.72C35.28 18.5067 35.3467 18.3333 35.48 18.2C35.6133 18.0667 35.7867 18 36 18H40.28C40.4933 18 40.6667 18.0667 40.8 18.2C40.9333 18.3333 41 18.5067 41 18.72ZM41 13V14.44C41 14.6267 40.9333 14.7867 40.8 14.92C40.6667 15.0533 40.4933 15.1333 40.28 15.16H24.56C24.3733 15.16 24.2133 15.08 24.08 14.92C23.9467 14.76 23.8667 14.6 23.84 14.44V13C23.84 12.7867 23.92 12.6133 24.08 12.48C24.24 12.3467 24.4 12.28 24.56 12.28H40.28C40.4933 12.28 40.6667 12.3467 40.8 12.48C40.9333 12.6133 41 12.7867 41 13ZM43.84 31.56V6.56H3.84V31.56C3.84 31.7467 3.92 31.92 4.08 32.08C4.24 32.24 4.4 32.3067 4.56 32.28H43.16C43.3467 32.28 43.5067 32.2133 43.64 32.08C43.7733 31.9467 43.84 31.7733 43.84 31.56ZM46.72 4.44V31.56C46.72 32.5467 46.3733 33.3867 45.68 34.08C44.9867 34.7733 44.1467 35.1333 43.16 35.16H4.56C3.6 35.16 2.76 34.8 2.04 34.08C1.32 33.36 0.973333 32.52 1 31.56V4.44C1 3.45333 1.34667 2.61333 2.04 1.92C2.73333 1.22666 3.57333 0.866665 4.56 0.839998H43.16C44.12 0.839998 44.96 1.2 45.68 1.92C46.4 2.64 46.7467 3.48 46.72 4.44Z" fill="#919191"/>
</svg>
