<svg width="15" height="13" viewBox="0 0 15 13" fill="none" xmlns="http://www.w3.org/2000/svg">
<path d="M14.304 0.48C14.4533 0.437333 14.5707 0.453333 14.656 0.528C14.7413 0.602666 14.7627 0.704 14.72 0.832C14.6987 0.896 14.3147 2.54933 13.568 5.792C12.8213 9.03467 12.4267 10.72 12.384 10.848C12.3627 10.9973 12.288 11.0987 12.16 11.152C12.032 11.2053 11.904 11.2 11.776 11.136L7.328 8.736L7.68 8.32C11.8187 3.84 13.92 1.568 13.984 1.504C14.0267 1.46133 14.0213 1.41333 13.968 1.36C13.9147 1.30667 13.8667 1.30133 13.824 1.344L5.024 7.776L3.232 7.072L0.192 5.856C0.064 5.81333 0 5.74933 0 5.664C0 5.57867 0.064 5.51467 0.192 5.472C0.277333 5.42933 2.62933 4.592 7.248 2.96C11.8667 1.328 14.2187 0.501333 14.304 0.48ZM4.992 12.128V8.864L7.552 10.176C6.16533 11.4133 5.408 12.096 5.28 12.224C5.088 12.3733 4.992 12.3413 4.992 12.128Z" fill="white"/>
</svg>
