<svg width="10" height="13" viewBox="0 0 10 13" fill="none" xmlns="http://www.w3.org/2000/svg">
<path d="M8.96 4.336C9.14667 4.336 9.33333 4.42467 9.52 4.602C9.70667 4.77933 9.8 4.97067 9.8 5.176V10.636C9.8 11.084 9.576 11.392 9.128 11.56L8.288 11.812C7.896 11.9613 7.448 12.036 6.944 12.036H2.884C2.36133 12.036 1.904 11.9613 1.512 11.812L0.672 11.56C0.224 11.392 0 11.084 0 10.636V5.176C0 4.97067 0.07 4.77933 0.21 4.602C0.35 4.42467 0.513333 4.336 0.7 4.336H2.1V3.356C2.1 2.32933 2.338 1.536 2.814 0.976C3.29 0.416 3.98533 0.136 4.9 0.136C5.81467 0.136 6.51 0.416 6.986 0.976C7.462 1.536 7.7 2.32933 7.7 3.356V4.336H8.96ZM3.5 3.076V4.336H6.3V3.076C6.3 2.59067 6.174 2.21267 5.922 1.942C5.67 1.67133 5.32933 1.536 4.9 1.536C4.47067 1.536 4.13 1.67133 3.878 1.942C3.626 2.21267 3.5 2.59067 3.5 3.076Z" fill="#515151"/>
</svg>
