<svg width="17" height="17" viewBox="0 0 17 17" fill="none" xmlns="http://www.w3.org/2000/svg">
<path d="M0.171875 16.288L1.25988 10.8L5.64388 15.168L0.171875 16.288ZM2.36388 10.016L9.11588 3.264L13.2599 7.424L6.52388 14.176L2.36388 10.016ZM10.8599 2.112C10.8812 1.696 11.0465 1.328 11.3559 1.008C11.6652 0.687999 12.0332 0.522666 12.4599 0.511999C12.8865 0.501333 13.2385 0.634666 13.5159 0.912L15.6119 3.008C15.8785 3.28533 16.0065 3.63733 15.9959 4.064C15.9852 4.49067 15.8252 4.85867 15.5159 5.168C15.2065 5.47733 14.8385 5.63733 14.4119 5.648C13.9852 5.65867 13.6332 5.53067 13.3559 5.264L11.2599 3.168C10.9719 2.88 10.8385 2.528 10.8599 2.112Z" fill="#F89736"/>
</svg>
