<svg width="32" height="31" viewBox="0 0 32 31" fill="none" xmlns="http://www.w3.org/2000/svg">
<path d="M1.09 18.71C1.71 16.77 2.78 15.04 4.3 13.52C5.48 12.3 7.51 10.85 10.39 9.17C12.97 7.69 14.75 6.46 15.73 5.48C16.83 4.38 17.57 3.17 17.95 1.85C18.07 1.53 18.23 1.26 18.43 1.04C18.71 0.799999 19 0.639999 19.3 0.559999C20 0.399998 20.61 0.559999 21.13 1.04L30.49 10.4C31.01 10.94 31.17 11.57 30.97 12.29C30.35 14.27 29.27 16 27.73 17.48C26.57 18.7 24.54 20.15 21.64 21.83C19.06 23.31 17.29 24.54 16.33 25.52C15.23 26.58 14.48 27.79 14.08 29.15C13.96 29.47 13.81 29.74 13.63 29.96C13.35 30.2 13.05 30.36 12.73 30.44C12.03 30.6 11.43 30.44 10.93 29.96L1.54 20.6C1.04 20.06 0.89 19.43 1.09 18.71ZM2.89 19.25L5.86 22.22L12.28 28.64C12.78 27.06 13.62 25.66 14.8 24.44C15.98 23.22 17.26 22.2 18.64 21.38L22.78 18.98L26.65 15.95C29.23 13.93 30.06 12.53 29.14 11.75L19.78 2.39C19.3 3.95 18.47 5.34 17.29 6.56C16.11 7.78 14.82 8.8 13.42 9.62L9.25 12.02L5.41 15.05C2.85 17.07 2.01 18.47 2.89 19.25ZM11.11 25.22L11.74 24.35C12.18 23.81 12.65 23.28 13.15 22.76C13.59 22.3 14.14 21.81 14.8 21.29C15.02 21.11 15.23 21.11 15.43 21.29C15.67 21.53 15.67 21.77 15.43 22.01H15.37C14.75 22.51 14.23 22.98 13.81 23.42C13.33 23.88 12.9 24.36 12.52 24.86L11.92 25.7C11.88 25.74 11.86 25.78 11.86 25.82C11.62 26.06 11.39 26.06 11.17 25.82C11.01 25.62 10.99 25.42 11.11 25.22ZM11.92 14.45C11.96 14.09 12.06 13.76 12.22 13.46C12.38 13.1 12.57 12.78 12.79 12.5C12.79 12.46 12.74 12.42 12.64 12.38C12.56 12.32 12.52 12.24 12.52 12.14C12.52 12.04 12.56 11.94 12.64 11.84C12.72 11.74 12.8 11.69 12.88 11.69C12.96 11.69 13.03 11.73 13.09 11.81C13.17 11.89 13.25 11.95 13.33 11.99C13.49 11.83 13.69 11.67 13.93 11.51C14.17 11.35 14.45 11.23 14.77 11.15C15.09 11.07 15.38 11.06 15.64 11.12C15.9 11.18 16.14 11.33 16.36 11.57C16.52 11.73 16.6 11.91 16.6 12.11C16.6 12.31 16.52 12.46 16.36 12.56C16.26 12.68 16.11 12.72 15.91 12.68C15.79 12.64 15.61 12.6 15.37 12.56C15.19 12.48 14.99 12.45 14.77 12.47C14.55 12.49 14.32 12.6 14.08 12.8C14.48 13.2 14.99 13.77 15.61 14.51C15.89 14.35 16.19 14.21 16.51 14.09C16.85 13.97 17.18 13.89 17.5 13.85C17.82 13.81 18.13 13.84 18.43 13.94C18.73 14.04 19.03 14.21 19.33 14.45C19.63 14.69 19.84 14.94 19.96 15.2C20.04 15.48 20.06 15.78 20.02 16.1C20.02 16.4 19.92 16.73 19.72 17.09C19.56 17.47 19.34 17.84 19.06 18.2C19.22 18.32 19.38 18.45 19.54 18.59C19.62 18.63 19.67 18.7 19.69 18.8C19.71 18.9 19.68 18.99 19.6 19.07C19.52 19.15 19.43 19.2 19.33 19.22C19.23 19.24 19.14 19.21 19.06 19.13C18.88 18.97 18.73 18.81 18.61 18.65C18.25 19.01 17.9 19.25 17.56 19.37C17.24 19.49 16.9 19.55 16.54 19.55C16.24 19.51 15.96 19.43 15.7 19.31C15.44 19.19 15.24 19.04 15.1 18.86C14.96 18.68 14.88 18.51 14.86 18.35C14.84 18.19 14.92 18.03 15.1 17.87C15.28 17.71 15.41 17.64 15.49 17.66L15.88 17.75C16.06 17.79 16.19 17.87 16.27 17.99C16.35 18.11 16.48 18.18 16.66 18.2C16.84 18.22 17.01 18.22 17.17 18.2C17.33 18.18 17.53 18.06 17.77 17.84C17.35 17.42 16.79 16.8 16.09 15.98C15.45 16.32 14.8 16.51 14.14 16.55C13.56 16.59 13.06 16.44 12.64 16.1C12.36 15.86 12.16 15.6 12.04 15.32C11.92 15.04 11.88 14.75 11.92 14.45ZM13.18 14.12C13.16 14.26 13.17 14.4 13.21 14.54C13.25 14.68 13.33 14.78 13.45 14.84C13.65 15.04 13.87 15.13 14.11 15.11C14.35 15.09 14.68 14.99 15.1 14.81C14.5 14.17 14.01 13.66 13.63 13.28L13.33 13.7C13.25 13.82 13.2 13.96 13.18 14.12ZM16.54 9.83C16.36 9.63 16.36 9.41 16.54 9.17C16.58 9.13 16.62 9.11 16.66 9.11C17.3 8.61 17.83 8.14 18.25 7.7C18.71 7.24 19.14 6.75 19.54 6.23L20.11 5.42C20.15 5.34 20.19 5.3 20.23 5.3C20.47 5.06 20.69 5.05 20.89 5.27C21.09 5.49 21.11 5.72 20.95 5.96L20.29 6.83C19.87 7.37 19.4 7.9 18.88 8.42C18.46 8.88 17.92 9.36 17.26 9.86C17.02 10.06 16.78 10.05 16.54 9.83ZM16.66 15.68C17.3 16.38 17.83 16.94 18.25 17.36C18.37 17.26 18.47 17.13 18.55 16.97C18.63 16.81 18.69 16.65 18.73 16.49C18.77 16.33 18.77 16.19 18.73 16.07C18.69 15.95 18.6 15.81 18.46 15.65C18.32 15.49 18.17 15.4 18.01 15.38C17.85 15.36 17.7 15.35 17.56 15.35C17.42 15.35 17.26 15.4 17.08 15.5L16.66 15.68Z" fill="white"/>
</svg>
