<svg width="38" height="39" viewBox="0 0 38 39" fill="none" xmlns="http://www.w3.org/2000/svg">
<path d="M3.296 5.612C2.552 6.356 1.928 7.244 1.424 8.276C0.919998 9.308 0.595997 10.616 0.451996 12.2C0.307998 13.784 0.451999 15.428 0.883999 17.132C1.316 18.836 2.204 20.792 3.548 23C4.892 25.208 6.68 27.428 8.912 29.66C14.6 35.348 20.048 38.192 25.256 38.192C28.472 38.192 31.052 37.22 32.996 35.276L36.344 31.928C37.448 30.824 38 29.492 38 27.932C38 26.372 37.448 25.052 36.344 23.972L33.356 20.984C32.252 19.88 30.932 19.328 29.396 19.328C27.86 19.328 26.54 19.88 25.436 20.984L22.844 23.54L14.996 15.764L17.624 13.172C18.728 12.044 19.28 10.712 19.28 9.176C19.28 7.64 18.728 6.308 17.624 5.18L14.636 2.228C13.556 1.148 12.236 0.607999 10.676 0.607999C9.092 0.607999 7.76 1.148 6.68 2.228L3.296 5.612ZM14.96 7.844C15.32 8.204 15.5 8.648 15.5 9.176C15.5 9.704 15.32 10.148 14.96 10.508L12.944 12.524L7.292 6.908L9.344 4.892C9.704 4.532 10.148 4.352 10.676 4.352C11.18 4.352 11.612 4.532 11.972 4.892L14.96 7.844ZM33.716 29.264L31.664 31.28L26.012 25.664L28.1 23.648C28.46 23.288 28.892 23.108 29.396 23.108C29.9 23.108 30.332 23.288 30.692 23.648L33.716 26.6C34.076 26.96 34.256 27.404 34.256 27.932C34.256 28.46 34.076 28.904 33.716 29.264ZM11.576 27.032C9.632 25.064 8.072 23.156 6.896 21.308C5.72 19.46 4.952 17.864 4.592 16.52C4.232 15.176 4.1 13.916 4.196 12.74C4.292 11.564 4.496 10.628 4.808 9.932C5.12 9.236 5.504 8.672 5.96 8.24L11.576 13.892L11.036 14.432C10.676 14.792 10.496 15.236 10.496 15.764C10.496 16.292 10.676 16.724 11.036 17.06L21.512 27.572C21.872 27.932 22.316 28.112 22.844 28.112C23.372 28.112 23.816 27.932 24.176 27.572L24.716 26.96L30.332 32.648C29.132 33.848 27.44 34.448 25.256 34.448C21.08 34.448 16.52 31.976 11.576 27.032Z" fill="white"/>
</svg>
