<svg width="18" height="14" viewBox="0 0 18 14" fill="none" xmlns="http://www.w3.org/2000/svg">
<path d="M17.66 3.32C17.66 3.61333 17.5533 3.86667 17.34 4.08L7.74 13.68C7.52667 13.88 7.27333 13.98 6.98 13.98C6.68667 13.98 6.43333 13.88 6.22 13.68L0.66 8.12C0.46 7.90667 0.36 7.65333 0.36 7.36C0.36 7.06667 0.46 6.81333 0.66 6.6L2.18 5.08C2.39333 4.86667 2.64667 4.76 2.94 4.76C3.23333 4.76 3.48667 4.86667 3.7 5.08L6.98 8.38L14.3 1.04C14.5133 0.826666 14.7667 0.719999 15.06 0.719999C15.3533 0.719999 15.6067 0.826666 15.82 1.04L17.34 2.56C17.5533 2.76 17.66 3.01333 17.66 3.32Z" fill="#32C36A"/>
</svg>
