<svg width="31" height="32" viewBox="0 0 31 32" fill="none" xmlns="http://www.w3.org/2000/svg">
<path d="M15.36 0.439999C19.6267 0.439999 23.2533 1.93333 26.24 4.92C29.2267 7.90667 30.72 11.5227 30.72 15.768C30.72 20.0133 29.2267 23.64 26.24 26.648C23.2533 29.656 19.6267 31.16 15.36 31.16C11.0933 31.16 7.46667 29.656 4.48 26.648C1.49333 23.64 0 20.0133 0 15.768C0 11.5227 1.49333 7.90667 4.48 4.92C7.46667 1.93333 11.0933 0.439999 15.36 0.439999ZM19.008 11V8.504H16.704C15.7653 8.504 14.976 8.856 14.336 9.56C13.696 10.264 13.376 11.128 13.376 12.152V13.56H10.944V15.928H13.376V23.032H16.128V15.928H19.008V13.56H16.128V11.896C16.128 11.2987 16.32 11 16.704 11H19.008Z" fill="#F89736"/>
</svg>
