<svg width="14" height="19" viewBox="0 0 14 19" fill="none" xmlns="http://www.w3.org/2000/svg">
<path d="M0 7.486C0 5.614 0.66 4.012 1.98 2.68C3.3 1.348 4.902 0.688 6.786 0.7C8.67 0.711999 10.272 1.372 11.592 2.68C12.912 3.988 13.572 5.59 13.572 7.486C13.572 8.962 13.254 10.12 12.618 10.96L6.786 18.7L0.954 10.96C0.318 10.12 0 8.962 0 7.486ZM3.942 7.486C3.942 8.278 4.218 8.95 4.77 9.502C5.322 10.054 5.994 10.33 6.786 10.33C7.578 10.33 8.25 10.054 8.802 9.502C9.354 8.95 9.63 8.278 9.63 7.486C9.63 6.694 9.354 6.022 8.802 5.47C8.25 4.918 7.578 4.642 6.786 4.642C5.994 4.642 5.322 4.918 4.77 5.47C4.218 6.022 3.942 6.694 3.942 7.486Z" fill="#F89736"/>
</svg>
