<svg width="31" height="31" viewBox="0 0 31 31" fill="none" xmlns="http://www.w3.org/2000/svg">
<path d="M1 13.61V12.68C1 12.06 1.2 11.5 1.6 11L4.39 7.25C4.47 7.13 4.59 6.99 4.75 6.83V2.39C4.75 1.87 4.94 1.43 5.32 1.07C5.7 0.709999 6.14 0.519999 6.64 0.499999H25.36C25.88 0.499999 26.32 0.689999 26.68 1.07C27.04 1.45 27.23 1.89 27.25 2.39V6.83C27.41 6.99 27.53 7.13 27.61 7.25L30.4 11C30.8 11.5 31 12.06 31 12.68V13.61C31 14.41 30.73 15.08 30.19 15.62C29.65 16.16 28.98 16.43 28.18 16.43V28.64C28.18 29.14 28 29.57 27.64 29.93C27.28 30.29 26.84 30.48 26.32 30.5H5.68C5.18 30.5 4.74 30.31 4.36 29.93C3.98 29.55 3.8 29.12 3.82 28.64V16.43C3.04 16.43 2.37 16.16 1.81 15.62C1.25 15.08 0.98 14.41 1 13.61ZM2.89 13.61C2.89 13.89 2.97 14.12 3.13 14.3C3.29 14.48 3.52 14.57 3.82 14.57H5.56L9.31 8H6.64C6.32 8 6.06 8.12 5.86 8.36L3.04 12.11C2.94 12.29 2.89 12.48 2.89 12.68V13.61ZM5.68 28.64H11.77V19.25C11.77 18.97 11.86 18.75 12.04 18.59C12.22 18.43 12.45 18.34 12.73 18.32H19.75C20.03 18.32 20.25 18.41 20.41 18.59C20.57 18.77 20.66 18.99 20.68 19.25V28.64H26.32V16.43H5.68V28.64ZM6.64 14.57H10.54L12.43 8H10.39L6.64 14.57ZM6.64 6.14H25.36V2.39H6.64V6.14ZM11.56 14.57H15.52V8H13.42L11.56 14.57ZM12.73 28.64H19.75V19.25H12.73V28.64ZM16.48 14.57H20.44L18.58 8H16.48V14.57ZM19.57 8L21.46 14.57H25.36L21.64 8H19.57ZM22.69 8L26.44 14.57H28.18C28.46 14.57 28.69 14.48 28.87 14.3C29.05 14.12 29.13 13.89 29.11 13.61V12.68C29.11 12.48 29.06 12.29 28.96 12.11L26.14 8.36C25.94 8.12 25.68 8 25.36 8H22.69Z" fill="#9B2DFA"/>
</svg>
