<svg width="14" height="13" viewBox="0 0 14 13" fill="none" xmlns="http://www.w3.org/2000/svg">
<path d="M10.0019 10.6C10.0019 10.46 9.95519 10.3433 9.86186 10.25C9.76853 10.1567 9.65186 10.1053 9.51186 10.096C9.37186 10.0867 9.25519 10.138 9.16186 10.25C9.06853 10.362 9.01719 10.4787 9.00786 10.6C8.99853 10.7213 9.04986 10.838 9.16186 10.95C9.27386 11.062 9.39053 11.1133 9.51186 11.104C9.63319 11.0947 9.74986 11.0433 9.86186 10.95C9.97386 10.8567 10.0205 10.74 10.0019 10.6ZM12.0039 10.6C12.0039 10.46 11.9572 10.3433 11.8639 10.25C11.7705 10.1567 11.6492 10.1053 11.4999 10.096C11.3505 10.0867 11.2339 10.138 11.1499 10.25C11.0659 10.362 11.0192 10.4787 11.0099 10.6C11.0005 10.7213 11.0472 10.838 11.1499 10.95C11.2525 11.062 11.3692 11.1133 11.4999 11.104C11.6305 11.0947 11.7519 11.0433 11.8639 10.95C11.9759 10.8567 12.0225 10.74 12.0039 10.6ZM13.0119 8.85V11.356C13.0119 11.5613 12.9372 11.734 12.7879 11.874C12.6385 12.014 12.4612 12.0887 12.2559 12.098H0.761859C0.547193 12.098 0.369859 12.0233 0.229859 11.874C0.0898594 11.7247 0.0151927 11.552 0.00585938 11.356V8.85C0.00585938 8.64467 0.080526 8.46733 0.229859 8.318C0.379193 8.16867 0.556526 8.094 0.761859 8.094H4.38786L5.43786 9.158C5.74586 9.45667 6.10053 9.606 6.50186 9.606C6.90319 9.606 7.25786 9.45667 7.56586 9.158L8.62986 8.094H12.2559C12.4612 8.094 12.6385 8.16867 12.7879 8.318C12.9372 8.46733 13.0119 8.64467 13.0119 8.85ZM10.4639 4.398C10.5572 4.61267 10.5199 4.79467 10.3519 4.944L6.85186 8.444C6.75853 8.54667 6.64186 8.598 6.50186 8.598C6.36186 8.598 6.24519 8.54667 6.15186 8.444L2.65186 4.944C2.49319 4.79467 2.45586 4.61267 2.53986 4.398C2.63319 4.202 2.78719 4.104 3.00186 4.104H5.00386V0.604C5.00386 0.463999 5.05519 0.347333 5.15786 0.253999C5.26053 0.160666 5.37719 0.109333 5.50786 0.0999997H7.50986C7.64053 0.0999997 7.75719 0.151333 7.85986 0.253999C7.96253 0.356666 8.00919 0.473333 7.99986 0.604V4.104H10.0019C10.2259 4.104 10.3799 4.202 10.4639 4.398Z" fill="#3079DB"/>
</svg>
