<svg width="14" height="14" viewBox="0 0 14 14" fill="" xmlns="http://www.w3.org/2000/svg">
<path d="M1 6.631V6.228C1 5.95933 1.08667 5.71667 1.26 5.5L2.469 3.875C2.50367 3.823 2.55567 3.76233 2.625 3.693V1.769C2.625 1.54367 2.70733 1.353 2.872 1.197C3.03667 1.041 3.22733 0.958666 3.444 0.95H11.556C11.7813 0.95 11.972 1.03233 12.128 1.197C12.284 1.36167 12.3663 1.55233 12.375 1.769V3.693C12.4443 3.76233 12.4963 3.823 12.531 3.875L13.74 5.5C13.9133 5.71667 14 5.95933 14 6.228V6.631C14 6.97767 13.883 7.268 13.649 7.502C13.415 7.736 13.1247 7.853 12.778 7.853V13.144C12.778 13.3607 12.7 13.547 12.544 13.703C12.388 13.859 12.1973 13.9413 11.972 13.95H3.028C2.81133 13.95 2.62067 13.8677 2.456 13.703C2.29133 13.5383 2.21333 13.352 2.222 13.144V7.853C1.884 7.853 1.59367 7.736 1.351 7.502C1.10833 7.268 0.991333 6.97767 1 6.631ZM1.819 6.631C1.819 6.75233 1.85367 6.852 1.923 6.93C1.99233 7.008 2.092 7.047 2.222 7.047H2.976L4.601 4.2H3.444C3.30533 4.2 3.19267 4.252 3.106 4.356L1.884 5.981C1.84067 6.059 1.819 6.14133 1.819 6.228V6.631ZM3.028 13.144H5.667V9.075C5.667 8.95367 5.706 8.85833 5.784 8.789C5.862 8.71967 5.96167 8.68067 6.083 8.672H9.125C9.24633 8.672 9.34167 8.711 9.411 8.789C9.48033 8.867 9.51933 8.96233 9.528 9.075V13.144H11.972V7.853H3.028V13.144ZM3.444 7.047H5.134L5.953 4.2H5.069L3.444 7.047ZM3.444 3.394H11.556V1.769H3.444V3.394ZM5.576 7.047H7.292V4.2H6.382L5.576 7.047ZM6.083 13.144H9.125V9.075H6.083V13.144ZM7.708 7.047H9.424L8.618 4.2H7.708V7.047ZM9.047 4.2L9.866 7.047H11.556L9.944 4.2H9.047ZM10.399 4.2L12.024 7.047H12.778C12.8993 7.047 12.999 7.008 13.077 6.93C13.155 6.852 13.1897 6.75233 13.181 6.631V6.228C13.181 6.14133 13.1593 6.059 13.116 5.981L11.894 4.356C11.8073 4.252 11.6947 4.2 11.556 4.2H10.399Z" fill="#F89736"/>
</svg>
