<svg width="34" height="27" viewBox="0 0 34 27" fill="none" xmlns="http://www.w3.org/2000/svg">
<path d="M30.46 0.629999C31.2 0.629999 31.83 0.899999 32.35 1.44C32.87 1.98 33.13 2.61 33.13 3.33V23.67C33.13 24.41 32.87 25.04 32.35 25.56C31.83 26.08 31.2 26.35 30.46 26.37H3.67C2.95 26.37 2.32 26.1 1.78 25.56C1.24 25.02 0.98 24.39 1 23.67V3.33C1 2.59 1.26 1.96 1.78 1.44C2.3 0.919999 2.93 0.649998 3.67 0.629999H30.46ZM3.67 2.79C3.53 2.79 3.41 2.84 3.31 2.94C3.21 3.04 3.15 3.17 3.13 3.33V7.08H31V3.33C31 3.17 30.95 3.04 30.85 2.94C30.75 2.84 30.62 2.79 30.46 2.79H3.67ZM30.46 24.21C30.6 24.21 30.73 24.16 30.85 24.06C30.97 23.96 31.02 23.83 31 23.67V13.5H3.13V23.67C3.13 23.81 3.19 23.94 3.31 24.06C3.43 24.18 3.55 24.23 3.67 24.21H30.46ZM5.29 22.08V19.92H9.58V22.08H5.29ZM11.71 22.08V19.92H18.13V22.08H11.71Z" fill="#2C71FA"/>
</svg>
