<svg width="15" height="15" viewBox="0 0 15 15" fill="none" xmlns="http://www.w3.org/2000/svg">
<path d="M8.856 10.12V11.544C8.856 11.6293 8.82933 11.6987 8.776 11.752C8.72267 11.8053 8.65333 11.832 8.568 11.832H7.144C7.05867 11.832 6.98933 11.8053 6.936 11.752C6.88267 11.6987 6.856 11.6293 6.856 11.544V10.12C6.856 10.0347 6.88267 9.96533 6.936 9.912C6.98933 9.85867 7.05867 9.832 7.144 9.832H8.568C8.65333 9.832 8.72267 9.85867 8.776 9.912C8.82933 9.96533 8.856 10.0347 8.856 10.12ZM11.144 5.688C11.144 5.98667 11.1013 6.25333 11.016 6.488C10.9307 6.72267 10.792 6.93067 10.6 7.112C10.408 7.29333 10.2533 7.42133 10.136 7.496L9.608 7.816C9.416 7.92267 9.27733 8.008 9.192 8.072C9.10667 8.136 9.032 8.20533 8.968 8.28C8.904 8.35467 8.86667 8.44 8.856 8.536V8.824C8.856 8.90933 8.82933 8.97867 8.776 9.032C8.72267 9.08533 8.65333 9.112 8.568 9.112H7.144C7.05867 9.112 6.98933 9.08533 6.936 9.032C6.88267 8.97867 6.856 8.90933 6.856 8.824V8.216C6.856 8.01333 6.888 7.82133 6.952 7.64C7.016 7.45867 7.08533 7.32 7.16 7.224C7.23467 7.128 7.352 7.02133 7.512 6.904C7.672 6.78667 7.79467 6.712 7.88 6.68C7.96533 6.648 8.09867 6.584 8.28 6.488C8.58933 6.33867 8.81333 6.21067 8.952 6.104C9.09067 5.99733 9.15467 5.85333 9.144 5.672C9.144 5.416 9.016 5.20267 8.76 5.032C8.504 4.86133 8.21067 4.776 7.88 4.776C7.56 4.76533 7.28267 4.84 7.048 5C6.87733 5.128 6.64267 5.37867 6.344 5.752C6.29067 5.816 6.216 5.848 6.12 5.848C6.056 5.848 5.99733 5.832 5.944 5.8L4.984 5.064C4.92 5.02133 4.88267 4.96267 4.872 4.888C4.86133 4.81333 4.87733 4.744 4.92 4.68C5.64533 3.53867 6.68533 2.968 8.04 2.968C8.808 2.968 9.51733 3.23467 10.168 3.768C10.8187 4.30133 11.144 4.94133 11.144 5.688ZM7.864 1.688C7.08533 1.688 6.344 1.83733 5.64 2.136C4.936 2.43467 4.328 2.84 3.816 3.352C3.304 3.864 2.89867 4.472 2.6 5.176C2.30133 5.88 2.14667 6.62133 2.136 7.4C2.12533 8.17867 2.28 8.92 2.6 9.624C2.92 10.328 3.32533 10.9307 3.816 11.432C4.30667 11.9333 4.91467 12.344 5.64 12.664C6.36533 12.984 7.10667 13.1333 7.864 13.112C8.62133 13.0907 9.35733 12.9413 10.072 12.664C10.7867 12.3867 11.3947 11.976 11.896 11.432C12.3973 10.888 12.8027 10.2853 13.112 9.624C13.4213 8.96267 13.576 8.22133 13.576 7.4C13.576 6.57867 13.4213 5.83733 13.112 5.176C12.8027 4.51467 12.3973 3.90667 11.896 3.352C11.3947 2.79733 10.7867 2.392 10.072 2.136C9.35733 1.88 8.62133 1.73067 7.864 1.688ZM14.712 7.4C14.712 8.648 14.408 9.79467 13.8 10.84C13.192 11.8853 12.36 12.7173 11.304 13.336C10.248 13.9547 9.10133 14.264 7.864 14.264C6.62667 14.264 5.47467 13.9547 4.408 13.336C3.34133 12.7173 2.51467 11.8853 1.928 10.84C1.34133 9.79467 1.032 8.648 1 7.4C0.968 6.152 1.27733 5.00533 1.928 3.96C2.57867 2.91467 3.40533 2.08267 4.408 1.464C5.41067 0.845333 6.56267 0.535999 7.864 0.535999C9.16533 0.535999 10.312 0.845333 11.304 1.464C12.296 2.08267 13.128 2.91467 13.8 3.96C14.472 5.00533 14.776 6.152 14.712 7.4Z" fill="#f89736"/>
</svg>
