<svg width="16" height="16" viewBox="0 0 16 16" fill="none" xmlns="http://www.w3.org/2000/svg">
<path d="M15.148 12.156C15.148 12.336 15.112 12.57 15.04 12.858C14.968 13.146 14.896 13.374 14.824 13.542C14.692 13.878 14.284 14.238 13.6 14.622C12.976 14.958 12.358 15.126 11.746 15.126C11.566 15.126 11.386 15.114 11.206 15.09C11.026 15.066 10.834 15.024 10.63 14.964L10.162 14.82L9.1 14.442C8.452 14.202 7.87 13.92 7.354 13.596C6.502 13.068 5.614 12.348 4.69 11.436C3.766 10.524 3.046 9.636 2.53 8.772C2.206 8.256 1.93 7.674 1.702 7.026L1.522 6.522C1.426 6.246 1.354 6.06 1.306 5.964C1.258 5.868 1.21 5.712 1.162 5.496L1.036 4.92C1 4.752 0.988 4.578 1 4.398C1 3.774 1.174 3.15 1.522 2.526C1.894 1.842 2.248 1.434 2.584 1.302C2.752 1.23 2.98 1.158 3.268 1.086C3.556 1.014 3.79 0.977999 3.97 0.977999C4.066 0.977999 4.138 0.989999 4.186 1.014C4.306 1.05 4.486 1.302 4.726 1.77L5.014 2.328C5.134 2.568 5.254 2.778 5.374 2.958C5.494 3.138 5.596 3.318 5.68 3.498C5.704 3.522 5.764 3.606 5.86 3.75C5.956 3.894 6.028 4.014 6.076 4.11C6.124 4.206 6.148 4.302 6.148 4.398C6.148 4.53 6.052 4.692 5.86 4.884C5.668 5.076 5.458 5.262 5.23 5.442C5.002 5.622 4.798 5.802 4.618 5.982C4.438 6.162 4.342 6.312 4.33 6.432C4.33 6.492 4.348 6.57 4.384 6.666L4.456 6.864C4.468 6.9 4.516 6.984 4.6 7.116C4.684 7.248 4.726 7.308 4.726 7.296C5.23 8.22 5.812 9.012 6.472 9.672C7.132 10.332 7.918 10.914 8.83 11.418C8.842 11.418 8.902 11.454 9.01 11.526C9.118 11.598 9.202 11.646 9.262 11.67L9.46 11.76C9.532 11.796 9.61 11.808 9.694 11.796C9.814 11.796 9.964 11.7 10.144 11.508C10.324 11.316 10.504 11.112 10.684 10.896C10.864 10.68 11.05 10.47 11.242 10.266C11.434 10.062 11.602 9.966 11.746 9.978C11.83 9.978 11.92 10.002 12.016 10.05C12.112 10.098 12.232 10.17 12.376 10.266C12.52 10.362 12.604 10.422 12.628 10.446L14.356 11.418C14.824 11.646 15.076 11.82 15.112 11.94C15.136 11.988 15.148 12.06 15.148 12.156Z" fill="#F89736"/>
</svg>
