<svg width="12" height="12" viewBox="0 0 12 12" fill="none" xmlns="http://www.w3.org/2000/svg">
<path d="M0 10.372V1.24C0 0.944 0.104 0.696 0.312 0.495999C0.52 0.296 0.768 0.192 1.056 0.184H10.2C10.488 0.184 10.732 0.288 10.932 0.495999C11.132 0.704 11.236 0.952 11.244 1.24V10.372C11.244 10.66 11.14 10.908 10.932 11.116C10.724 11.324 10.48 11.428 10.2 11.428H1.056C0.768 11.428 0.52 11.324 0.312 11.116C0.104 10.908 0 10.66 0 10.372ZM1.056 10.372H10.2V4.048H1.056V10.372ZM1.776 9.664V7.564H3.888V9.664H1.776ZM1.776 6.856V4.744H3.888V6.856H1.776ZM4.596 9.664V7.564H6.696V9.664H4.596ZM4.596 6.856V4.744H6.696V6.856H4.596ZM7.404 9.664V7.564H9.516V9.664H7.404ZM7.404 6.856V4.744H9.516V6.856H7.404Z" fill="#F89736"/>
</svg>
