<svg width="31" height="31" viewBox="0 0 31 31" fill="none" xmlns="http://www.w3.org/2000/svg">
<path d="M0 15.8C0 13.7733 0.394667 11.832 1.184 9.976C1.97333 8.12 3.04 6.53067 4.384 5.208C5.728 3.88533 7.328 2.81867 9.184 2.008C11.04 1.19733 12.9813 0.802665 15.008 0.823999C17.0347 0.845332 18.976 1.24 20.832 2.008C22.688 2.776 24.2773 3.84266 25.6 5.208C26.9227 6.57333 27.9893 8.16267 28.8 9.976C29.6107 11.7893 30.0053 13.7307 29.984 15.8C29.9627 17.8693 29.568 19.8107 28.8 21.624C28.032 23.4373 26.9653 25.0373 25.6 26.424C24.2347 27.8107 22.6453 28.8773 20.832 29.624C19.0187 30.3707 17.0773 30.7653 15.008 30.808C12.9387 30.8507 10.9973 30.456 9.184 29.624C7.37067 28.792 5.77067 27.7253 4.384 26.424C2.99733 25.1227 1.93067 23.5227 1.184 21.624C0.437333 19.7253 0.0426667 17.784 0 15.8ZM8.608 19.96C8.608 20.6213 8.84267 21.1867 9.312 21.656C9.78133 22.1253 10.3467 22.36 11.008 22.36H18.976C19.6587 22.36 20.224 22.1253 20.672 21.656C21.12 21.1867 21.3547 20.6213 21.376 19.96V16.024H18.432C18.24 16.792 17.824 17.4213 17.184 17.912C16.544 18.4027 15.8187 18.648 15.008 18.648C14.1973 18.648 13.472 18.4027 12.832 17.912C12.192 17.4213 11.7547 16.792 11.52 16.024H8.608V19.96ZM8.608 14.04H11.52C11.7547 13.272 12.192 12.6533 12.832 12.184C13.472 11.7147 14.1973 11.4693 15.008 11.448C15.8187 11.4267 16.544 11.672 17.184 12.184C17.824 12.696 18.24 13.3147 18.432 14.04H21.376V11.96C21.376 11.2987 21.1413 10.7333 20.672 10.264C20.2027 9.79467 19.6373 9.57067 18.976 9.592H11.008C10.3253 9.592 9.76 9.816 9.312 10.264C8.864 10.712 8.62933 11.2773 8.608 11.96V14.04ZM12.992 15.032C12.992 15.5867 13.184 16.056 13.568 16.44C13.952 16.824 14.432 17.016 15.008 17.016C15.584 17.016 16.0533 16.824 16.416 16.44C16.7787 16.056 16.9707 15.5867 16.992 15.032C17.0133 14.4773 16.8213 14.008 16.416 13.624C16.0107 13.24 15.5413 13.0373 15.008 13.016C14.4747 12.9947 13.9947 13.1973 13.568 13.624C13.1413 14.0507 12.9493 14.52 12.992 15.032Z" fill="#F89736"/>
</svg>
