<svg width="12" height="15" viewBox="0 0 12 15" fill="none" xmlns="http://www.w3.org/2000/svg">
<path d="M10.24 5.384C10.4533 5.384 10.6667 5.48533 10.88 5.688C11.0933 5.89067 11.2 6.10933 11.2 6.344V12.584C11.2 13.096 10.944 13.448 10.432 13.64L9.472 13.928C9.024 14.0987 8.512 14.184 7.936 14.184H3.296C2.69867 14.184 2.176 14.0987 1.728 13.928L0.768 13.64C0.256 13.448 0 13.096 0 12.584V6.344C0 6.10933 0.08 5.89067 0.24 5.688C0.4 5.48533 0.586667 5.384 0.8 5.384H2.4V4.264C2.4 3.09067 2.672 2.184 3.216 1.544C3.76 0.904 4.55467 0.584 5.6 0.584C6.64533 0.584 7.44 0.904 7.984 1.544C8.528 2.184 8.8 3.09067 8.8 4.264V5.384H10.24ZM4 3.944V5.384H7.2V3.944C7.2 3.38933 7.056 2.95733 6.768 2.648C6.48 2.33867 6.09067 2.184 5.6 2.184C5.10933 2.184 4.72 2.33867 4.432 2.648C4.144 2.95733 4 3.38933 4 3.944Z" fill="#f89736"/>
</svg>
