<svg width="31" height="32" viewBox="0 0 31 32" fill="none" xmlns="http://www.w3.org/2000/svg">
<path d="M15.36 0.439999C19.6267 0.439999 23.2533 1.93333 26.24 4.92C29.2267 7.90667 30.72 11.5227 30.72 15.768C30.72 20.0133 29.2267 23.64 26.24 26.648C23.2533 29.656 19.6373 31.16 15.392 31.16C11.1467 31.16 7.52 29.656 4.512 26.648C1.504 23.64 0 20.0133 0 15.768C0 11.5227 1.504 7.90667 4.512 4.92C7.52 1.93333 11.136 0.439999 15.36 0.439999ZM11.584 22.136V12.152H8.512V22.136H11.584ZM10.048 10.872C11.1573 10.872 11.712 10.36 11.712 9.336C11.712 8.312 11.1573 7.8 10.048 7.8C9.57867 7.8 9.184 7.94933 8.864 8.248C8.544 8.54667 8.384 8.90933 8.384 9.336C8.384 10.36 8.93867 10.872 10.048 10.872ZM22.976 22.136V16.248C22.976 14.84 22.6453 13.7627 21.984 13.016C21.3227 12.2693 20.4587 11.896 19.392 11.896C17.984 11.896 16.96 12.4293 16.32 13.496H16.256L16.064 12.152H13.376C13.4187 12.7493 13.44 13.816 13.44 15.352V22.136H16.576V16.376C16.576 15.992 16.6187 15.736 16.704 15.608C16.96 14.7973 17.4933 14.392 18.304 14.392C19.328 14.392 19.84 15.1173 19.84 16.568V22.136H22.976Z" fill="#F89736"/>
</svg>
