<svg width="15" height="17" viewBox="0 0 15 17" fill="none" xmlns="http://www.w3.org/2000/svg">
<path d="M12.6 0.6C13.104 0.6 13.53 0.774 13.878 1.122C14.226 1.47 14.4 1.896 14.4 2.4V15C14.4 15.48 14.226 15.9 13.878 16.26C13.53 16.62 13.104 16.8 12.6 16.8H1.8C1.32 16.8 0.9 16.62 0.54 16.26C0.18 15.9 0 15.48 0 15V2.4C0 1.896 0.18 1.47 0.54 1.122C0.9 0.774 1.32 0.6 1.8 0.6H12.6ZM12.6 15V2.4H1.8V15H12.6ZM8.1 10.5V11.4H3.6V10.5H8.1ZM10.8 6.9V7.8H7.2V6.9H10.8ZM7.2 6V4.2H10.8V6H7.2ZM6.3 4.2V7.8H3.6V4.2H6.3ZM5.4 8.7V9.6H3.6V8.7H5.4ZM6.3 9.6V8.7H10.8V9.6H6.3ZM10.8 12.3V13.2H3.6V12.3H10.8ZM9 11.4V10.5H10.8V11.4H9Z" fill="white"/>
</svg>
