<svg width="13" height="15" viewBox="0 0 13 15" fill="none" xmlns="http://www.w3.org/2000/svg">
<path d="M9.38 6.218C9.62267 6.29267 9.856 6.39533 10.08 6.526C10.304 6.65667 10.5373 6.84333 10.78 7.086C11.0227 7.32867 11.228 7.632 11.396 7.996C11.564 8.36 11.7087 8.808 11.83 9.34C11.9513 9.872 12.0073 10.488 11.998 11.188C11.998 11.9907 11.7367 12.6767 11.214 13.246C10.6913 13.8153 10.066 14.1 9.338 14.1H2.66C1.932 14.1 1.30667 13.8153 0.784 13.246C0.261333 12.6767 0 11.9907 0 11.188C0 10.5067 0.056 9.89067 0.168 9.34C0.28 8.78933 0.424667 8.34133 0.602 7.996C0.779333 7.65067 0.984667 7.34733 1.218 7.086C1.45133 6.82467 1.68467 6.638 1.918 6.526C2.15133 6.414 2.38467 6.31133 2.618 6.218C2.20733 5.574 2.002 4.86933 2.002 4.104C2.002 3.56267 2.10933 3.04467 2.324 2.55C2.53867 2.05533 2.82333 1.63067 3.178 1.276C3.53267 0.921333 3.95733 0.636666 4.452 0.422C4.94667 0.207333 5.46467 0.0999997 6.006 0.0999997C6.54733 0.0999997 7.06067 0.207333 7.546 0.422C8.03133 0.636666 8.46067 0.921333 8.834 1.276C9.20733 1.63067 9.492 2.05533 9.688 2.55C9.884 3.04467 9.98667 3.56267 9.996 4.104C9.996 4.86933 9.79067 5.574 9.38 6.218ZM6.006 1.094C5.17533 1.094 4.466 1.388 3.878 1.976C3.29 2.564 2.996 3.27333 2.996 4.104C2.996 4.93467 3.29 5.63933 3.878 6.218C4.466 6.79667 5.17533 7.09067 6.006 7.1C6.83667 7.10933 7.54133 6.81533 8.12 6.218C8.69867 5.62067 8.99267 4.916 9.002 4.104C9.01133 3.292 8.71733 2.58267 8.12 1.976C7.52267 1.36933 6.818 1.07533 6.006 1.094ZM9.338 13.106C9.79533 13.106 10.1873 12.9193 10.514 12.546C10.8407 12.1727 11.004 11.72 11.004 11.188C11.004 9.93733 10.7987 8.95267 10.388 8.234C9.97733 7.51533 9.38933 7.142 8.624 7.114C7.868 7.76733 6.99533 8.094 6.006 8.094C5.01667 8.094 4.13933 7.76733 3.374 7.114C2.60867 7.142 2.02067 7.51533 1.61 8.234C1.19933 8.95267 0.994 9.93733 0.994 11.188C0.994 11.72 1.15733 12.1727 1.484 12.546C1.81067 12.9193 2.20267 13.106 2.66 13.106H9.338Z" fill="#515151"/>
</svg>
