<svg width="13" height="13" viewBox="0 0 13 13" fill="none" xmlns="http://www.w3.org/2000/svg">
<path d="M12.79 9.63C12.79 9.78 12.76 9.975 12.7 10.215C12.64 10.455 12.58 10.645 12.52 10.785C12.41 11.065 12.07 11.365 11.5 11.685C10.98 11.965 10.465 12.105 9.955 12.105C9.805 12.105 9.655 12.095 9.505 12.075C9.355 12.055 9.195 12.02 9.025 11.97L8.635 11.85L7.75 11.535C7.21 11.335 6.725 11.1 6.295 10.83C5.585 10.39 4.845 9.79 4.075 9.03C3.305 8.27 2.705 7.53 2.275 6.81C2.005 6.38 1.775 5.895 1.585 5.355L1.435 4.935C1.355 4.705 1.295 4.55 1.255 4.47C1.215 4.39 1.175 4.26 1.135 4.08L1.03 3.6C1 3.46 0.99 3.315 1 3.165C1 2.645 1.145 2.125 1.435 1.605C1.745 1.035 2.04 0.694999 2.32 0.584999C2.46 0.525 2.65 0.464999 2.89 0.404999C3.13 0.344999 3.325 0.314999 3.475 0.314999C3.555 0.314999 3.615 0.325 3.655 0.345C3.755 0.374999 3.905 0.584999 4.105 0.975L4.345 1.44C4.445 1.64 4.545 1.815 4.645 1.965C4.745 2.115 4.83 2.265 4.9 2.415C4.92 2.435 4.97 2.505 5.05 2.625C5.13 2.745 5.19 2.845 5.23 2.925C5.27 3.005 5.29 3.085 5.29 3.165C5.29 3.275 5.21 3.41 5.05 3.57C4.89 3.73 4.715 3.885 4.525 4.035C4.335 4.185 4.165 4.335 4.015 4.485C3.865 4.635 3.785 4.76 3.775 4.86C3.775 4.91 3.79 4.975 3.82 5.055L3.88 5.22C3.89 5.25 3.93 5.32 4 5.43C4.07 5.54 4.105 5.59 4.105 5.58C4.525 6.35 5.01 7.01 5.56 7.56C6.11 8.11 6.765 8.595 7.525 9.015C7.535 9.015 7.585 9.045 7.675 9.105C7.765 9.165 7.835 9.205 7.885 9.225L8.05 9.3C8.11 9.33 8.175 9.34 8.245 9.33C8.345 9.33 8.47 9.25 8.62 9.09C8.77 8.93 8.92 8.76 9.07 8.58C9.22 8.4 9.375 8.225 9.535 8.055C9.695 7.885 9.835 7.805 9.955 7.815C10.025 7.815 10.1 7.835 10.18 7.875C10.26 7.915 10.36 7.975 10.48 8.055C10.6 8.135 10.67 8.185 10.69 8.205L12.13 9.015C12.52 9.205 12.73 9.35 12.76 9.45C12.78 9.49 12.79 9.55 12.79 9.63Z" fill="#F89736"/>
</svg>
