<svg width="30" height="25" viewBox="0 0 30 25" fill="none" xmlns="http://www.w3.org/2000/svg">
<path d="M2.13 22.08H19.29V19.92H2.13V22.08ZM2.13 13.5H19.29V11.37H2.13V13.5ZM28.38 21C28.38 20.56 28.23 20.18 27.93 19.86C27.63 19.54 27.25 19.38 26.79 19.38C26.33 19.38 25.95 19.54 25.65 19.86C25.35 20.18 25.19 20.56 25.17 21C25.15 21.44 25.31 21.82 25.65 22.14C25.99 22.46 26.37 22.62 26.79 22.62C27.21 22.62 27.59 22.46 27.93 22.14C28.27 21.82 28.42 21.44 28.38 21ZM2.13 4.92H19.29V2.79H2.13V4.92ZM28.38 12.42C28.38 11.98 28.23 11.6 27.93 11.28C27.63 10.96 27.25 10.81 26.79 10.83C26.33 10.85 25.95 11 25.65 11.28C25.35 11.56 25.19 11.94 25.17 12.42C25.15 12.9 25.31 13.28 25.65 13.56C25.99 13.84 26.37 14 26.79 14.04C27.21 14.08 27.59 13.92 27.93 13.56C28.27 13.2 28.42 12.82 28.38 12.42ZM28.38 3.87C28.38 3.41 28.23 3.03 27.93 2.73C27.63 2.43 27.25 2.27 26.79 2.25C26.33 2.23 25.95 2.39 25.65 2.73C25.35 3.07 25.19 3.45 25.17 3.87C25.15 4.29 25.31 4.66 25.65 4.98C25.99 5.3 26.37 5.46 26.79 5.46C27.21 5.46 27.59 5.3 27.93 4.98C28.27 4.66 28.42 4.29 28.38 3.87ZM30 17.79V24.21H0V17.79H30ZM30 9.21V15.63H0V9.21H30ZM30 0.629999V7.08H0V0.629999H30Z" fill="#9B2DFA"/>
</svg>
