<svg width="15" height="17" viewBox="0 0 15 17" fill="none" xmlns="http://www.w3.org/2000/svg">
<path d="M10.368 0.653999H12.384V2.598C12.384 3.978 11.892 5.16 10.908 6.144L5.22 11.796C4.692 12.336 4.404 12.972 4.356 13.704H6.354L3.348 16.746L0.324 13.704H2.358C2.43 12.372 2.91 11.262 3.798 10.374L9.486 4.722C10.074 4.122 10.368 3.414 10.368 2.598V0.653999ZM12.348 13.704H14.382L11.376 16.746L8.352 13.704H10.35C10.302 12.972 10.014 12.336 9.486 11.796L8.352 10.68L9.792 9.258L10.908 10.374C11.796 11.262 12.276 12.372 12.348 13.704Z" fill="white"/>
</svg>
