<svg width="13" height="11" viewBox="0 0 13 11" fill="none" xmlns="http://www.w3.org/2000/svg">
<path d="M4.998 9.356C4.998 9.37467 5.00267 9.426 5.012 9.51C5.02133 9.594 5.02133 9.65933 5.012 9.706L4.984 9.902C4.97467 9.986 4.95133 10.0373 4.914 10.056C4.87667 10.0747 4.82067 10.0887 4.746 10.098H2.254C1.62867 10.098 1.09667 9.87867 0.658 9.44C0.219333 9.00133 0 8.46933 0 7.844V2.356C0 1.73067 0.219333 1.19867 0.658 0.76C1.09667 0.321333 1.62867 0.102 2.254 0.102H4.746C4.82067 0.102 4.88133 0.125333 4.928 0.172C4.97467 0.218666 4.998 0.279333 4.998 0.354L5.012 0.508C5.02133 0.592 5.02133 0.662 5.012 0.717999L4.984 0.899999C4.97467 0.965333 4.95133 1.01667 4.914 1.054C4.87667 1.09133 4.82067 1.10533 4.746 1.096H2.254C1.90867 1.096 1.61467 1.21733 1.372 1.46C1.12933 1.70267 1.00333 2.00133 0.994 2.356V7.844C0.994 8.18933 1.12 8.48333 1.372 8.726C1.624 8.96867 1.918 9.09467 2.254 9.104H4.774C4.83 9.104 4.86267 9.11333 4.872 9.132C4.88133 9.15067 4.9 9.16467 4.928 9.174C4.956 9.18333 4.97467 9.20667 4.984 9.244C4.99333 9.28133 4.998 9.31867 4.998 9.356ZM12.25 5.1C12.25 5.23067 12.1987 5.34733 12.096 5.45L7.854 9.706C7.75133 9.79933 7.63467 9.846 7.504 9.846C7.37333 9.846 7.25667 9.79933 7.154 9.706C7.05133 9.61267 7 9.496 7 9.356V7.102H3.5C3.36933 7.102 3.25267 7.05067 3.15 6.948C3.04733 6.84533 2.996 6.72867 2.996 6.598V3.602C2.996 3.462 3.04733 3.34533 3.15 3.252C3.25267 3.15867 3.36933 3.10733 3.5 3.098H7V0.843999C7 0.713333 7.05133 0.596666 7.154 0.494C7.25667 0.391333 7.37333 0.344666 7.504 0.354C7.63467 0.363333 7.75133 0.41 7.854 0.494L12.096 4.75C12.1987 4.84333 12.25 4.96 12.25 5.1Z" fill="#F89736"/>
</svg>
