<svg width="28" height="25" viewBox="0 0 28 25" fill="none" xmlns="http://www.w3.org/2000/svg">
<path fill-rule="evenodd" clip-rule="evenodd" d="M13.2773 0.109731C13.4131 0.0378225 13.5668 0 13.7231 0C13.8795 0 14.0332 0.0378225 14.169 0.109731L26.7544 6.7764C26.892 6.84925 27.0064 6.95453 27.086 7.08155C27.1655 7.20858 27.2075 7.35284 27.2075 7.49973V8.69973C27.2075 16.2531 21.8048 22.8931 13.9695 24.9664C13.8085 25.0089 13.6378 25.0089 13.4768 24.9664C9.66342 23.9564 6.30865 21.8224 3.92013 18.8875C1.53161 15.9525 0.23931 12.3762 0.23877 8.69973L0.23877 7.49973C0.238821 7.35284 0.280753 7.20858 0.360319 7.08155C0.439884 6.95453 0.554255 6.84925 0.691845 6.7764L13.2773 0.109731V0.109731ZM12.9536 17.8514L20.717 8.85306L19.3147 7.81307L12.6947 15.4814L8.00577 11.8597L6.8551 13.1397L12.9536 17.8514V17.8514Z" fill="#516BFF"/>
</svg>
