<svg width="15" height="15" viewBox="0 0 15 15" fill="none" xmlns="http://www.w3.org/2000/svg">
<path d="M1.12 11.56C0.95 10.9 0.95 10.24 1.12 9.58C1.29 8.92 1.625 8.345 2.125 7.855L4.09 5.89C4.58 5.4 5.155 5.065 5.815 4.885C6.475 4.705 7.13 4.705 7.78 4.885C8.43 5.065 9.01 5.4 9.52 5.89C9.72 6.09 9.82 6.335 9.82 6.625C9.82 6.915 9.72 7.165 9.52 7.375C9.32 7.585 9.07 7.685 8.77 7.675C8.47 7.665 8.225 7.565 8.035 7.375C7.685 7.035 7.275 6.865 6.805 6.865C6.335 6.865 5.93 7.035 5.59 7.375L3.61 9.34C3.28 9.68 3.115 10.09 3.115 10.57C3.115 11.05 3.28 11.46 3.61 11.8C3.95 12.13 4.36 12.295 4.84 12.295C5.32 12.295 5.725 12.13 6.055 11.8L6.46 11.38C7.24 11.76 8.06 11.935 8.92 11.905L7.555 13.285C7.065 13.775 6.49 14.105 5.83 14.275C5.17 14.445 4.51 14.445 3.85 14.275C3.19 14.105 2.615 13.775 2.125 13.285C1.635 12.795 1.3 12.22 1.12 11.56ZM5.485 8.86C5.485 8.57 5.585 8.325 5.785 8.125C5.995 7.915 6.245 7.81 6.535 7.81C6.825 7.81 7.075 7.915 7.285 8.125C7.615 8.465 8.02 8.635 8.5 8.635C8.98 8.635 9.39 8.465 9.73 8.125L11.695 6.145C12.035 5.805 12.205 5.4 12.205 4.93C12.205 4.46 12.035 4.055 11.695 3.715C11.365 3.375 10.96 3.205 10.48 3.205C10 3.205 9.59 3.375 9.25 3.715L8.845 4.105C8.075 3.745 7.255 3.57 6.385 3.58L7.75 2.215C8.25 1.725 8.83 1.395 9.49 1.225C10.15 1.055 10.805 1.055 11.455 1.225C12.105 1.395 12.675 1.725 13.165 2.215C13.665 2.705 14.005 3.28 14.185 3.94C14.365 4.6 14.365 5.26 14.185 5.92C14.005 6.58 13.67 7.155 13.18 7.645L11.215 9.61C10.725 10.1 10.15 10.435 9.49 10.615C8.83 10.795 8.17 10.795 7.51 10.615C6.85 10.435 6.28 10.1 5.8 9.61C5.59 9.4 5.485 9.15 5.485 8.86Z" fill="#F89736"/>
</svg>
