<svg width="38" height="38" viewBox="0 0 38 38" fill="none" xmlns="http://www.w3.org/2000/svg">
<path d="M0.269531 19C0.269531 16.4667 0.762865 14.04 1.74953 11.72C2.7362 9.4 4.06953 7.41333 5.74953 5.76C7.42953 4.10667 9.4162 2.77333 11.7095 1.76C14.0029 0.746665 16.4429 0.253331 19.0295 0.279999C21.5629 0.279999 23.9762 0.773333 26.2695 1.76C28.5629 2.74667 30.5629 4.08 32.2695 5.76C33.9762 7.44 35.3095 9.42667 36.2695 11.72C37.2295 14.0133 37.7095 16.44 37.7095 19C37.7362 21.5333 37.2562 23.96 36.2695 26.28C35.2829 28.6 33.9495 30.6 32.2695 32.28C30.5895 33.96 28.5895 35.2933 26.2695 36.28C23.9495 37.2667 21.5229 37.76 18.9895 37.76C16.4562 37.76 14.0295 37.2667 11.7095 36.28C9.38953 35.2933 7.40287 33.96 5.74953 32.28C4.0962 30.6 2.76286 28.6 1.74953 26.28C0.736198 23.96 0.242865 21.5333 0.269531 19ZM15.7495 11.16L16.8295 20.92C16.8829 21.48 17.1095 21.9467 17.5095 22.32C17.9095 22.6933 18.3895 22.92 18.9495 23C19.5895 23.08 20.1629 22.92 20.6695 22.52C21.1762 22.12 21.4562 21.5867 21.5095 20.92L22.5895 11.16V10.48C22.4829 9.54667 22.0695 8.77333 21.3495 8.16C20.6295 7.54666 19.7895 7.29333 18.8295 7.4C17.8695 7.50667 17.0962 7.92 16.5095 8.64C15.9229 9.36 15.6695 10.2 15.7495 11.16ZM16.2295 27.6C16.2295 28.4 16.5229 29.0933 17.1095 29.68C17.6962 30.2667 18.3762 30.5467 19.1495 30.52C19.9229 30.4933 20.6162 30.2133 21.2295 29.68C21.8429 29.1467 22.1362 28.4533 22.1095 27.6C22.0829 26.7467 21.7895 26.0533 21.2295 25.52C20.6962 24.9867 20.0029 24.72 19.1495 24.72C18.2962 24.72 17.6162 24.9867 17.1095 25.52C16.5229 26.1067 16.2295 26.8 16.2295 27.6Z" fill="#F8462E"/>
</svg>
