<svg width="44" height="40" viewBox="0 0 44 40" fill="none" xmlns="http://www.w3.org/2000/svg">
<mask id="mask0_1575_66" style="mask-type:alpha" maskUnits="userSpaceOnUse" x="11" y="12" width="23" height="16">
<path d="M15.6812 12H33.6812V24H15.6812V12ZM24.6812 15C25.4768 15 26.2399 15.3161 26.8025 15.8787C27.3651 16.4413 27.6812 17.2044 27.6812 18C27.6812 18.7956 27.3651 19.5587 26.8025 20.1213C26.2399 20.6839 25.4768 21 24.6812 21C23.8855 21 23.1224 20.6839 22.5598 20.1213C21.9972 19.5587 21.6812 18.7956 21.6812 18C21.6812 17.2044 21.9972 16.4413 22.5598 15.8787C23.1224 15.3161 23.8855 15 24.6812 15V15ZM19.6812 14C19.6812 14.5304 19.4704 15.0391 19.0954 15.4142C18.7203 15.7893 18.2116 16 17.6812 16V20C18.2116 20 18.7203 20.2107 19.0954 20.5858C19.4704 20.9609 19.6812 21.4696 19.6812 22H29.6812C29.6812 21.4696 29.8919 20.9609 30.2669 20.5858C30.642 20.2107 31.1507 20 31.6812 20V16C31.1507 16 30.642 15.7893 30.2669 15.4142C29.8919 15.0391 29.6812 14.5304 29.6812 14H19.6812ZM11.6812 16H13.6812V26H29.6812V28H11.6812V16Z" fill="#979797"/>
</mask>
<g mask="url(#mask0_1575_66)">
<rect x="0.681152" width="43.15" height="40" fill="#516BFF"/>
</g>
</svg>
