<svg width="35" height="36" viewBox="0 0 35 36" fill="none" xmlns="http://www.w3.org/2000/svg">
<path d="M29.0316 14.4C29.0316 13.9733 28.8982 13.6267 28.6316 13.36L26.5916 11.36C26.2982 11.0667 25.9649 10.92 25.5916 10.92C25.2182 10.92 24.8849 11.0667 24.5916 11.36L15.4716 20.44L10.4316 15.4C10.1382 15.1067 9.8049 14.96 9.43156 14.96C9.05823 14.96 8.7249 15.1067 8.43156 15.4L6.39156 17.4C6.1249 17.6667 5.99156 18.0133 5.99156 18.44C5.99156 18.84 6.1249 19.1733 6.39156 19.44L14.4716 27.52C14.7382 27.7867 15.0716 27.92 15.4716 27.92C15.8716 27.92 16.2182 27.7867 16.5116 27.52L28.6316 15.4C28.8982 15.1333 29.0316 14.8 29.0316 14.4ZM34.6316 18C34.6316 21.12 33.8716 23.9867 32.3516 26.6C30.8316 29.2133 28.7516 31.2933 26.1116 32.84C23.4716 34.3867 20.6049 35.16 17.5116 35.16C14.4182 35.16 11.5382 34.3867 8.87156 32.84C6.2049 31.2933 4.13823 29.2133 2.67156 26.6C1.2049 23.9867 0.431563 21.12 0.351562 18C0.271562 14.88 1.0449 12.0133 2.67156 9.4C4.29823 6.78667 6.3649 4.70667 8.87156 3.16C11.3782 1.61333 14.2582 0.839998 17.5116 0.839998C20.7649 0.839998 23.6316 1.61333 26.1116 3.16C28.5916 4.70667 30.6716 6.78667 32.3516 9.4C34.0316 12.0133 34.7916 14.88 34.6316 18Z" fill="#32C36A"/>
</svg>
