<svg width="31" height="32" viewBox="0 0 31 32" fill="none" xmlns="http://www.w3.org/2000/svg">
<path d="M15.36 0.439999C19.6267 0.439999 23.2533 1.93333 26.24 4.92C29.2267 7.90667 30.72 11.5227 30.72 15.768C30.72 20.0133 29.2267 23.64 26.24 26.648C23.2533 29.656 19.6373 31.16 15.392 31.16C11.1467 31.16 7.52 29.656 4.512 26.648C1.504 23.64 0 20.0133 0 15.768C0 11.5227 1.504 7.90667 4.512 4.92C7.52 1.93333 11.136 0.439999 15.36 0.439999ZM21.632 12.984C22.272 12.5147 22.7627 12.0027 23.104 11.448C22.4213 11.704 21.8453 11.8533 21.376 11.896C22.016 11.512 22.464 10.9573 22.72 10.232C22.08 10.5733 21.44 10.808 20.8 10.936C20.2027 10.3387 19.4667 10.04 18.592 10.04C17.7173 10.04 16.992 10.3387 16.416 10.936C15.84 11.5333 15.552 12.2373 15.552 13.048L15.584 13.368C15.6053 13.5387 15.616 13.6667 15.616 13.752C13.056 13.624 10.9867 12.5573 9.408 10.552C9.10933 11.064 8.96 11.576 8.96 12.088C8.96 13.1547 9.42933 13.9867 10.368 14.584C9.81333 14.584 9.344 14.456 8.96 14.2V14.264C8.96 14.9893 9.184 15.6293 9.632 16.184C10.08 16.7387 10.6667 17.08 11.392 17.208C11.0507 17.2933 10.7947 17.336 10.624 17.336C10.368 17.336 10.176 17.3147 10.048 17.272C10.4747 18.68 11.4133 19.384 12.864 19.384C11.7973 20.2373 10.5387 20.664 9.088 20.664H8.384C9.83467 21.56 11.3707 22.008 12.992 22.008C15.5947 22.008 17.6853 21.1227 19.264 19.352C20.8427 17.5813 21.632 15.5867 21.632 13.368V12.984Z" fill="#F89736"/>
</svg>
