<svg width="27" height="31" viewBox="0 0 27 31" fill="none" xmlns="http://www.w3.org/2000/svg">
<path d="M25.5505 23C26.0305 23.52 26.1305 24.09 25.8505 24.71C25.5705 25.33 25.1005 25.65 24.4405 25.67H19.5205C19.1805 27.05 18.4405 28.17 17.3005 29.03C16.1605 29.89 14.8905 30.33 13.4905 30.35C12.0905 30.37 10.8205 29.93 9.68047 29.03C8.54047 28.13 7.81047 27.01 7.49047 25.67H2.57047C1.93047 25.67 1.46047 25.34 1.16047 24.68C0.860469 24.02 0.960469 23.45 1.46047 22.97L1.76047 22.61C1.90047 22.45 2.11047 22.08 2.39047 21.5C2.67047 20.92 2.94047 20.29 3.20047 19.61C3.46047 18.93 3.68047 18 3.86047 16.82C4.04047 15.64 4.14047 14.41 4.16047 13.13C4.16047 11.11 4.74047 9.29 5.90047 7.67C7.06047 6.05 8.56047 4.92 10.4005 4.28C10.3805 4.16 10.3705 3.99 10.3705 3.77C10.3705 2.91 10.6705 2.18 11.2705 1.58C11.8705 0.979999 12.6105 0.669999 13.4905 0.649999C14.3705 0.629999 15.1105 0.94 15.7105 1.58C16.3105 2.22 16.6205 2.95 16.6405 3.77C16.6405 3.87 16.6105 4.04 16.5505 4.28C18.4105 4.94 19.9305 6.07 21.1105 7.67C22.2905 9.27 22.8705 11.09 22.8505 13.13C22.8505 14.43 22.9505 15.66 23.1505 16.82C23.3505 17.98 23.5705 18.91 23.8105 19.61C24.0505 20.31 24.3205 20.95 24.6205 21.53C24.9205 22.11 25.1305 22.47 25.2505 22.61C25.3705 22.75 25.4705 22.88 25.5505 23ZM13.4905 6.92C11.7705 6.92 10.3005 7.52 9.08047 8.72C7.86047 9.92 7.25047 11.39 7.25047 13.13C7.25047 14.35 7.20047 15.4 7.10047 16.28H19.9105C19.7705 15.2 19.7005 14.15 19.7005 13.13C19.7005 11.41 19.0905 9.94 17.8705 8.72C16.6505 7.5 15.1905 6.9 13.4905 6.92ZM13.4905 27.2C14.7105 27.2 15.6105 26.69 16.1905 25.67H10.8205C11.4005 26.69 12.2905 27.2 13.4905 27.2ZM5.39047 22.52H21.6205C21.0005 21.22 20.5105 19.65 20.1505 17.81H6.86047C6.50047 19.65 6.01047 21.22 5.39047 22.52Z" fill="white"/>
</svg>
