<svg width="42" height="35" viewBox="0 0 42 35" fill="none" xmlns="http://www.w3.org/2000/svg">
<path d="M1 30.76V12C1 11.0667 1.30667 10.2533 1.92 9.56C2.53333 8.86667 3.26667 8.45333 4.12 8.32L9.52 7.4L11.24 3.08C11.56 2.36 12.0267 1.78667 12.64 1.36C13.2533 0.933332 13.96 0.733332 14.76 0.759998H27.24C28.04 0.759998 28.7467 0.959998 29.36 1.36C29.9733 1.76 30.44 2.33333 30.76 3.08L32.48 7.4L37.88 8.32C38.76 8.48 39.5067 8.89333 40.12 9.56C40.7333 10.2267 41.0267 11.04 41 12V30.76C41 31.8 40.64 32.68 39.92 33.4C39.2 34.12 38.3067 34.4933 37.24 34.52H4.76C3.72 34.52 2.82667 34.1467 2.08 33.4C1.33333 32.6533 0.973333 31.7733 1 30.76ZM3.52 30.76C3.52 31.1067 3.62667 31.4 3.84 31.64C4.05333 31.88 4.36 32 4.76 32H37.24C37.6133 32 37.92 31.88 38.16 31.64C38.4 31.4 38.5067 31.1067 38.48 30.76V12C38.48 11.28 38.1467 10.8667 37.48 10.76L30.68 9.64L28.44 4.04C28.2267 3.50667 27.8267 3.24 27.24 3.24H14.76C14.1733 3.24 13.7733 3.50667 13.56 4.04L11.32 9.64L4.52 10.76C3.85333 10.8667 3.52 11.28 3.52 12V30.76ZM11 19.48C11 16.7333 11.9733 14.3867 13.92 12.44C15.8667 10.4933 18.2267 9.50667 21 9.48C23.7733 9.45333 26.1333 10.44 28.08 12.44C30.0267 14.44 31 16.7867 31 19.48C31 22.1733 30.0267 24.5333 28.08 26.56C26.1333 28.5867 23.7733 29.56 21 29.48C18.2267 29.4 15.8667 28.4267 13.92 26.56C11.9733 24.6933 11 22.3333 11 19.48ZM13.52 20.08C13.6533 22.1333 14.52 23.84 16.12 25.2C17.72 26.56 19.5467 27.16 21.6 27C23.6533 26.84 25.36 25.9733 26.72 24.4C28.08 22.8267 28.68 21 28.52 18.92C28.36 16.84 27.48 15.1333 25.88 13.8C24.28 12.4667 22.4533 11.8667 20.4 12C18.3467 12.1333 16.64 13 15.28 14.6C13.92 16.2 13.3333 18.0267 13.52 20.08ZM16 19.48C16 18.1467 16.48 16.9867 17.44 16C18.4 15.0133 19.5867 14.5067 21 14.48C21.4267 14.48 21.64 14.6933 21.64 15.12C21.64 15.5467 21.4267 15.76 21 15.76C19.96 15.76 19.08 16.12 18.36 16.84C17.64 17.56 17.2667 18.44 17.24 19.48C17.24 19.9067 17.04 20.12 16.64 20.12C16.24 20.12 16.0267 19.9067 16 19.48Z" fill="#919191"/>
</svg>
