<svg width="19" height="13" viewBox="0 0 19 13" fill="none" xmlns="http://www.w3.org/2000/svg">
<path d="M0 11.884V1.516L0.054 1.174L6.156 6.394L0.072 12.244C0.024 12.076 0 11.956 0 11.884ZM0.81 0.454C0.894 0.417999 0.996 0.399999 1.116 0.399999H17.55C17.658 0.399999 17.766 0.417999 17.874 0.454L11.754 5.692L10.944 6.34L9.342 7.654L7.74 6.34L6.93 5.692L0.81 0.454ZM0.828 12.946L6.966 7.06L9.342 8.986L11.718 7.06L17.856 12.946C17.76 12.982 17.658 13 17.55 13H1.116C1.02 13 0.924 12.982 0.828 12.946ZM12.528 6.394L18.612 1.174C18.648 1.282 18.666 1.396 18.666 1.516V11.884C18.666 11.992 18.648 12.112 18.612 12.244L12.528 6.394Z" fill="#F89736"/>
</svg>
