<svg width="16" height="15" viewBox="0 0 16 15" fill="none" xmlns="http://www.w3.org/2000/svg">
<path d="M14.3248 3.976C14.6448 3.976 14.9221 4.09867 15.1568 4.344C15.4021 4.58933 15.5248 4.88267 15.5248 5.224V11.08C15.5248 11.4107 15.4021 11.6987 15.1568 11.944C14.9221 12.1893 14.6448 12.312 14.3248 12.312H13.1088L13.6528 14.76H2.59675L3.02875 12.312H1.71675C1.36475 12.312 1.06608 12.1947 0.82075 11.96C0.586083 11.7147 0.46875 11.4213 0.46875 11.08V5.224C0.46875 4.872 0.586083 4.57867 0.82075 4.344C1.06608 4.09867 1.36475 3.976 1.71675 3.976H3.25275V2.104H3.79675V0.039999H12.2288V2.104H12.7728V3.976H14.3248ZM4.35675 0.792V5.464H11.6688V0.792H4.35675ZM2.54875 7.016C2.79408 7.016 3.00208 6.93067 3.17275 6.76C3.34342 6.58933 3.42875 6.392 3.42875 6.168C3.42875 5.93333 3.33808 5.73067 3.15675 5.56C2.98608 5.38933 2.78342 5.304 2.54875 5.304C2.31408 5.304 2.11142 5.38933 1.94075 5.56C1.77008 5.73067 1.68475 5.93333 1.68475 6.168C1.68475 6.392 1.77008 6.58933 1.94075 6.76C2.11142 6.93067 2.31408 7.016 2.54875 7.016ZM3.55675 14.024H12.6288L11.8768 10.152H4.13275L3.55675 14.024ZM7.58875 12.216H5.36475V11.656H7.58875V12.216ZM10.7568 12.216H8.53275V11.656H10.7568V12.216Z" fill="#3079DB"/>
</svg>
