<svg width="15" height="14" viewBox="0 0 15 14" fill="none" xmlns="http://www.w3.org/2000/svg">
<path d="M0.888672 12.434V1.78C0.888672 1.43467 1.01001 1.14533 1.25267 0.911999C1.49534 0.678666 1.78467 0.557333 2.12067 0.548H12.7887C13.1247 0.548 13.4093 0.669333 13.6427 0.911999C13.876 1.15467 13.9973 1.444 14.0067 1.78V12.434C14.0067 12.77 13.8853 13.0593 13.6427 13.302C13.4 13.5447 13.1153 13.666 12.7887 13.666H2.12067C1.78467 13.666 1.49534 13.5447 1.25267 13.302C1.01001 13.0593 0.888672 12.77 0.888672 12.434ZM2.12067 12.434H12.7887V5.056H2.12067V12.434ZM2.96067 11.608V9.158H5.42467V11.608H2.96067ZM2.96067 8.332V5.868H5.42467V8.332H2.96067ZM6.25067 11.608V9.158H8.70067V11.608H6.25067ZM6.25067 8.332V5.868H8.70067V8.332H6.25067ZM9.52667 11.608V9.158H11.9907V11.608H9.52667ZM9.52667 8.332V5.868H11.9907V8.332H9.52667Z" fill="#F89736"/>
</svg>
