<svg width="15" height="15" viewBox="0 0 15 15" fill="none" xmlns="http://www.w3.org/2000/svg">
<path d="M12.6 0.499999C13.104 0.499999 13.53 0.673999 13.878 1.022C14.226 1.37 14.4 1.796 14.4 2.3V9.5C14.4 9.98 14.226 10.4 13.878 10.76C13.53 11.12 13.104 11.3 12.6 11.3H5.4C4.92 11.3 4.5 11.12 4.14 10.76C3.78 10.4 3.6 9.98 3.6 9.5V2.264C3.6 1.784 3.774 1.37 4.122 1.022C4.47 0.673999 4.896 0.499999 5.4 0.499999H12.6ZM12.6 9.5V2.3H5.4V9.5H12.6ZM1.8 7.7V13.1H7.2V14.9H1.8C1.32 14.9 0.9 14.72 0.54 14.36C0.18 14 0 13.58 0 13.1V7.7H1.8Z" fill="#3079DB"/>
</svg>
