<svg width="21" height="21" viewBox="0 0 21 21" fill="none" xmlns="http://www.w3.org/2000/svg">
<path d="M10.08 0.519999C12.864 0.519999 15.24 1.504 17.208 3.472C19.176 5.44 20.16 7.816 20.16 10.6C20.16 13.384 19.176 15.76 17.208 17.728C15.24 19.696 12.864 20.68 10.08 20.68C7.296 20.68 4.92 19.696 2.952 17.728C0.984 15.76 0 13.384 0 10.6C0 7.816 0.984 5.44 2.952 3.472C4.92 1.504 7.296 0.519999 10.08 0.519999ZM11.328 11.8H16.128V9.352H11.328V4.504H8.88V9.352H4.032V11.8H8.88V16.648H11.328V11.8Z" fill="#919191"/>
</svg>
