<svg width="16" height="11" viewBox="0 0 16 11" fill="none" xmlns="http://www.w3.org/2000/svg">
<path d="M0 10.07V1.43L0.045 1.145L5.13 5.495L0.06 10.37C0.02 10.23 0 10.13 0 10.07ZM0.675 0.545C0.745 0.514999 0.83 0.499999 0.93 0.499999H14.625C14.715 0.499999 14.805 0.514999 14.895 0.545L9.795 4.91L9.12 5.45L7.785 6.545L6.45 5.45L5.775 4.91L0.675 0.545ZM0.69 10.955L5.805 6.05L7.785 7.655L9.765 6.05L14.88 10.955C14.8 10.985 14.715 11 14.625 11H0.93C0.85 11 0.77 10.985 0.69 10.955ZM10.44 5.495L15.51 1.145C15.54 1.235 15.555 1.33 15.555 1.43V10.07C15.555 10.16 15.54 10.26 15.51 10.37L10.44 5.495Z" fill="#F89736"/>
</svg>
