<svg width="26" height="25" viewBox="0 0 26 25" fill="none" xmlns="http://www.w3.org/2000/svg">
<path d="M6.58 18.8L10.06 15.32V24.08L1.78 23.6L4.42 21.02C2.1 18.58 0.96 15.68 1 12.32C1.04 8.96 2.24 6.08 4.6 3.68C6.6 1.68 9 0.519999 11.8 0.199998L11.92 3.26C9.92 3.58 8.2 4.46 6.76 5.9C5 7.66 4.1 9.79 4.06 12.29C4.02 14.79 4.86 16.96 6.58 18.8ZM16.54 0.859999L24.82 1.34L22.18 3.92C24.5 6.36 25.64 9.26 25.6 12.62C25.56 15.98 24.36 18.86 22 21.26C20.08 23.22 17.68 24.4 14.8 24.8L14.74 21.68C16.7 21.36 18.4 20.48 19.84 19.04C21.6 17.28 22.5 15.15 22.54 12.65C22.58 10.15 21.74 7.98 20.02 6.14L16.6 9.62L16.54 0.859999Z" fill="#32C36A"/>
</svg>
